<svg xmlns="http://www.w3.org/2000/svg" width="11.363" height="12.513" viewBox="0 0 11.363 12.513">
  <g id="box" transform="translate(-2.471 -1.485)">
    <path id="Path_202" data-name="Path 202" d="M13.306,10.017V5.436a1.145,1.145,0,0,0-.573-.991L8.726,2.155a1.145,1.145,0,0,0-1.145,0L3.573,4.446A1.145,1.145,0,0,0,3,5.436v4.581a1.145,1.145,0,0,0,.573.991L7.581,13.3a1.145,1.145,0,0,0,1.145,0l4.008-2.29A1.145,1.145,0,0,0,13.306,10.017Z" fill="none" stroke="#443df5" stroke-linecap="round" stroke-linejoin="round" stroke-width="1"/>
    <path id="Path_203" data-name="Path 203" d="M3.27,6.96l5,2.891,5-2.891" transform="translate(-0.115 -2.119)" fill="none" stroke="#443df5" stroke-linecap="round" stroke-linejoin="round" stroke-width="1"/>
    <line id="Line_13" data-name="Line 13" y1="5.771" transform="translate(8.153 7.727)" fill="none" stroke="#443df5" stroke-linecap="round" stroke-linejoin="round" stroke-width="1"/>
  </g>
</svg>
